<svg width="22" height="22" viewBox="0 0 22 22" fill="none" xmlns="http://www.w3.org/2000/svg">
<path d="M10.8354 0C7.89264 0 7.52365 0.0126628 6.36795 0.0661956C5.21465 0.119597 4.42699 0.305565 3.73778 0.577508C3.02526 0.858576 2.421 1.2347 1.81859 1.84623C1.21622 2.45779 0.845725 3.07123 0.568863 3.79458C0.300991 4.49426 0.117807 5.29389 0.0652049 6.46471C0.0124733 7.63798 0 8.01258 0 11C0 13.9874 0.0124733 14.362 0.0652049 15.5353C0.117807 16.7061 0.300991 17.5057 0.568863 18.2054C0.845725 18.9288 1.21622 19.5422 1.81859 20.1538C2.421 20.7653 3.02526 21.1414 3.73778 21.4225C4.42699 21.6944 5.21465 21.8804 6.36795 21.9338C7.52365 21.9873 7.89264 22 10.8354 22C13.778 22 14.147 21.9873 15.3027 21.9338C16.456 21.8804 17.2437 21.6944 17.9329 21.4225C18.6454 21.1414 19.2497 20.7653 19.8521 20.1538C20.4545 19.5422 20.825 18.9288 21.1019 18.2054C21.3697 17.5057 21.5529 16.7061 21.6055 15.5353C21.6582 14.362 21.6707 13.9874 21.6707 11C21.6707 8.01258 21.6582 7.63798 21.6055 6.46471C21.5529 5.29389 21.3697 4.49426 21.1019 3.79458C20.825 3.07123 20.4545 2.45779 19.8521 1.84623C19.2497 1.2347 18.6454 0.858576 17.9329 0.577508C17.2437 0.305565 16.456 0.119597 15.3027 0.0661956C14.147 0.0126628 13.778 0 10.8354 0ZM10.8354 1.98198C13.7285 1.98198 14.0712 1.9932 15.2138 2.04612C16.2702 2.09503 16.8439 2.27423 17.2257 2.42487C17.7315 2.62442 18.0924 2.86278 18.4716 3.24773C18.8508 3.63263 19.0856 3.99906 19.2821 4.51251C19.4305 4.90013 19.607 5.48257 19.6552 6.55506C19.7073 7.71496 19.7184 8.06288 19.7184 11C19.7184 13.9371 19.7073 14.285 19.6552 15.4449C19.607 16.5174 19.4305 17.0999 19.2821 17.4875C19.0856 18.0009 18.8508 18.3674 18.4716 18.7523C18.0924 19.1372 17.7315 19.3756 17.2257 19.5751C16.8439 19.7258 16.2702 19.905 15.2138 19.9539C14.0714 20.0068 13.7287 20.018 10.8354 20.018C7.94198 20.018 7.59935 20.0068 6.45694 19.9539C5.4005 19.905 4.82678 19.7258 4.44497 19.5751C3.9392 19.3756 3.57825 19.1372 3.19911 18.7523C2.81997 18.3674 2.58513 18.0009 2.38857 17.4875C2.24018 17.0999 2.06367 16.5174 2.01549 15.4449C1.96336 14.285 1.95231 13.9371 1.95231 11C1.95231 8.06288 1.96336 7.71496 2.01549 6.55506C2.06367 5.48257 2.24018 4.90013 2.38857 4.51251C2.58513 3.99906 2.81993 3.63263 3.19911 3.24773C3.57825 2.86278 3.9392 2.62442 4.44497 2.42487C4.82678 2.27423 5.4005 2.09503 6.45694 2.04612C7.59948 1.9932 7.94219 1.98198 10.8354 1.98198ZM10.8354 5.35135C7.76236 5.35135 5.27125 7.88032 5.27125 11C5.27125 14.1197 7.76236 16.6486 10.8354 16.6486C13.9083 16.6486 16.3994 14.1197 16.3994 11C16.3994 7.88032 13.9083 5.35135 10.8354 5.35135ZM10.8354 14.6667C8.8406 14.6667 7.22356 13.0251 7.22356 11C7.22356 8.97495 8.8406 7.33333 10.8354 7.33333C12.8301 7.33333 14.4471 8.97495 14.4471 11C14.4471 13.0251 12.8301 14.6667 10.8354 14.6667ZM17.9195 5.12819C17.9195 5.85721 17.3374 6.44816 16.6193 6.44816C15.9012 6.44816 15.319 5.85721 15.319 5.12819C15.319 4.39916 15.9012 3.80816 16.6193 3.80816C17.3374 3.80816 17.9195 4.39916 17.9195 5.12819Z" fill="black"/>
</svg>
