<svg width="27" height="20" viewBox="0 0 27 20" fill="none" xmlns="http://www.w3.org/2000/svg">
<path d="M2.625 20C1.90312 20 1.28516 19.743 0.771093 19.2289C0.257031 18.7148 0 18.0969 0 17.375V2.625C0 1.90313 0.257031 1.28516 0.771093 0.771094C1.28516 0.257031 1.90312 0 2.625 0H23.625C24.3469 0 24.9648 0.257031 25.4789 0.771094C25.993 1.28516 26.25 1.90313 26.25 2.625V17.375C26.25 18.0969 25.993 18.7148 25.4789 19.2289C24.9648 19.743 24.3469 20 23.625 20H2.625ZM13.125 11.8125L2 4.25V18H24V4.25L13.125 11.8125ZM13.125 9.1875L24 2H2L13.125 9.1875ZM2 4.25V2V18V4.25Z" fill="black"/>
</svg>
